# Blender 3.6.4
# www.blender.org
mtllib gungun.mtl
o Cube
v 1.000000 1.000000 -1.000000
v 1.000000 -1.000000 -1.000000
v 1.000000 1.116056 1.000000
v 1.000000 -1.000000 1.000000
v -1.000000 1.000000 -1.000000
v -1.000000 -1.000000 -1.000000
v -1.000000 1.000000 1.000000
v -1.000000 -1.000000 1.000000
v 1.000000 3.007418 -1.000000
v 1.000000 1.007418 -1.000000
v 1.000000 3.007418 1.000000
v 1.000000 1.123474 1.000000
v -1.000000 3.007418 -1.000000
v -1.000000 1.007418 -1.000000
v -1.000000 3.007418 1.000000
v -1.000000 1.007418 1.000000
v 1.000000 5.019370 -1.000000
v 1.000000 3.019370 -1.000000
v 1.000000 5.019370 1.000000
v 1.000000 3.019370 1.000000
v -1.000000 5.019370 -1.000000
v -1.000000 3.019370 -1.000000
v -1.000000 5.019370 1.000000
v -1.000000 3.019370 1.000000
v 0.960201 3.102395 1.000000
v 0.960202 3.102395 8.024326
v -0.972768 3.102395 1.000000
v -0.972768 3.102395 8.024326
v 0.960201 5.014059 1.000000
v 0.960201 5.014059 8.024326
v -0.972768 5.014058 1.000000
v -0.972768 5.014058 8.024326
v -0.403269 1.924697 2.233410
v -0.612361 3.127442 2.298347
v -0.687066 1.130152 1.210596
v -0.937308 2.487492 1.691388
v 1.058528 1.916731 2.198605
v 0.858949 3.106156 2.201062
v 0.769616 1.130152 1.210596
v 0.563898 2.540601 1.572264
vn 0.0290 -0.9992 0.0290
vn -0.0000 -0.0000 -1.0000
vn 1.0000 -0.0000 -0.0000
vn -0.0000 1.0000 -0.0000
vn -1.0000 -0.0000 -0.0000
vn -0.0000 -0.0000 1.0000
vn -0.0000 -1.0000 -0.0000
vn -0.0290 0.9992 -0.0290
vn -0.8086 -0.2578 0.5289
vn -0.0437 0.2843 -0.9577
vn 0.8560 0.2002 -0.4766
vn 0.0448 -0.0205 0.9988
vn 0.0052 -0.7868 0.6172
vn -0.0575 0.7289 -0.6822
vt 0.625000 0.500000
vt 0.625000 0.750000
vt 0.875000 0.750000
vt 0.875000 0.500000
vt 0.375000 0.750000
vt 0.375000 1.000000
vt 0.625000 1.000000
vt 0.375000 0.000000
vt 0.375000 0.250000
vt 0.625000 0.250000
vt 0.625000 0.000000
vt 0.125000 0.500000
vt 0.125000 0.750000
vt 0.375000 0.500000
s 0
usemtl Material
f 1/1/1 3/2/1 7/3/1 5/4/1
f 4/5/2 8/6/2 7/7/2 3/2/2
f 8/8/3 6/9/3 5/10/3 7/11/3
f 6/12/4 8/13/4 4/5/4 2/14/4
f 2/14/5 4/5/5 3/2/5 1/1/5
f 6/9/6 2/14/6 1/1/6 5/10/6
f 9/1/7 11/2/7 15/3/7 13/4/7
f 12/5/2 16/6/2 15/7/2 11/2/2
f 16/8/3 14/9/3 13/10/3 15/11/3
f 14/12/8 16/13/8 12/5/8 10/14/8
f 10/14/5 12/5/5 11/2/5 9/1/5
f 14/9/6 10/14/6 9/1/6 13/10/6
f 17/1/4 21/4/4 23/3/4 19/2/4
f 20/5/6 19/2/6 23/7/6 24/6/6
f 24/8/5 23/11/5 21/10/5 22/9/5
f 22/12/7 18/14/7 20/5/7 24/13/7
f 18/14/3 17/1/3 19/2/3 20/5/3
f 22/9/2 21/10/2 17/1/2 18/14/2
f 25/8/7 26/11/7 28/10/7 27/9/7
f 27/9/5 28/10/5 32/1/5 31/14/5
f 31/14/4 32/1/4 30/2/4 29/5/4
f 29/5/3 30/2/3 26/7/3 25/6/3
f 27/12/2 31/14/2 29/5/2 25/13/2
f 32/1/6 28/4/6 26/3/6 30/2/6
f 33/8/9 34/11/9 36/10/9 35/9/9
f 35/9/10 36/10/10 40/1/10 39/14/10
f 39/14/11 40/1/11 38/2/11 37/5/11
f 37/5/12 38/2/12 34/7/12 33/6/12
f 35/12/13 39/14/13 37/5/13 33/13/13
f 40/1/14 36/4/14 34/3/14 38/2/14
