# Blender 3.6.4
# www.blender.org
mtllib democow.mtl
o Cow
v -2.110802 2.153109 0.660929
v -2.110802 2.153109 1.147810
v -2.110802 2.346379 0.660929
v -2.110802 2.346379 1.147810
v -2.070239 2.057691 -0.646173
v -2.070239 2.057691 -1.175236
v -2.070239 2.277432 -0.646173
v -2.070239 2.277432 -1.175236
v 1.832066 3.646416 -1.832066
v 1.008806 0.852526 -1.008806
v 1.832066 3.646416 1.832066
v 1.008806 0.852526 1.008806
v -1.832066 3.646416 -1.832066
v -1.008806 0.852526 -1.008806
v -1.832066 3.646416 1.832066
v -1.008806 0.852526 1.008806
v -0.411318 0.045837 0.761678
v -0.411318 -0.017559 0.976825
v -0.936986 0.045837 0.761678
v -0.936986 -0.017559 0.976825
v -0.411318 1.659903 1.237285
v -0.411318 1.596507 1.452433
v -0.936986 1.659903 1.237285
v -0.936986 1.596507 1.452433
v 0.859347 -0.134307 0.708595
v 0.859347 -0.180646 0.865854
v 0.297016 -0.134307 0.708595
v 0.297016 -0.180646 0.865854
v 0.859347 1.573616 1.211859
v 0.859347 1.527277 1.369118
v 0.297016 1.573616 1.211859
v 0.297016 1.527277 1.369118
v 0.549524 0.130454 -0.796039
v 0.549524 0.071488 -0.996153
v 1.049680 0.130454 -0.796039
v 1.049680 0.071488 -0.996153
v 0.549524 1.666535 -1.248668
v 0.549524 1.607569 -1.448781
v 1.049680 1.666535 -1.248668
v 1.049680 1.607569 -1.448781
v -0.604384 -0.122137 -0.721609
v -0.604384 -0.169095 -0.880968
v -0.087049 -0.122137 -0.721609
v -0.087049 -0.169095 -0.880968
v -0.604384 1.588368 -1.225634
v -0.604384 1.541410 -1.384993
v -0.087049 1.588368 -1.225634
v -0.087049 1.541410 -1.384993
v -1.228693 1.598760 -0.646172
v -2.870159 1.115078 -0.646172
v -1.535797 2.640976 -0.646172
v -3.177263 2.157294 -0.646172
v -1.228693 1.598760 0.660930
v -2.870159 1.115078 0.660930
v -1.535797 2.640976 0.660930
v -3.177263 2.157294 0.660930
v -2.875229 1.132280 -0.542866
v -3.759740 0.871646 -0.542866
v -3.016119 1.610417 -0.542866
v -3.900630 1.349783 -0.542866
v -2.875229 1.132280 0.530986
v -3.759740 0.871646 0.530986
v -3.016119 1.610417 0.530986
v -3.900630 1.349783 0.530986
v -2.110802 2.153109 0.660929
v -2.110802 2.153109 1.147810
v -2.438256 2.153109 0.660929
v -2.438256 2.153109 1.147810
v -2.110802 2.346379 0.660929
v -2.110802 2.346379 1.147810
v -2.438256 2.346379 0.660929
v -2.438256 2.346379 1.147810
v -2.471215 2.057691 -0.646173
v -2.471215 2.057691 -1.175236
v -2.070239 2.057691 -0.646173
v -2.070239 2.057691 -1.175236
v -2.471215 2.277432 -0.646173
v -2.471215 2.277432 -1.175236
v -2.070239 2.277432 -0.646173
v -2.070239 2.277432 -1.175236
v 1.297231 1.831357 0.142983
v 5.138943 0.699341 0.142983
v 1.343058 1.986879 0.142983
v 5.184770 0.854863 0.142983
v 1.297231 1.831357 -0.050430
v 5.138943 0.699341 -0.050430
v 1.343058 1.986879 -0.050430
v 5.184770 0.854863 -0.050430
vn 1.0000 -0.0000 -0.0000
vn -0.0000 1.0000 -0.0000
vn -0.0000 -0.2826 0.9592
vn -0.9592 -0.2826 -0.0000
vn -0.0000 -1.0000 -0.0000
vn 0.9592 -0.2826 -0.0000
vn -0.0000 -0.2826 -0.9592
vn -0.0000 -0.9592 -0.2826
vn -1.0000 -0.0000 -0.0000
vn -0.0000 0.9592 0.2826
vn -0.0000 0.2826 -0.9592
vn -0.0000 -0.9592 0.2826
vn -0.0000 0.9592 -0.2826
vn -0.0000 0.2826 0.9592
vn -0.0000 -0.0000 -1.0000
vn -0.2826 0.9592 -0.0000
vn -0.0000 -0.0000 1.0000
vn 0.2826 -0.9592 -0.0000
vn 0.9592 0.2826 -0.0000
vn 0.2826 0.9592 -0.0000
vn -0.2826 -0.9592 -0.0000
vn 0.9592 -0.2827 -0.0000
vt 0.333429 0.915995
vt 0.416571 0.915995
vt 0.416571 0.999136
vt 0.333429 0.999136
vt 0.583429 0.749712
vt 0.666571 0.749712
vt 0.666571 0.832853
vt 0.583429 0.832853
vt 0.166571 0.166571
vt 0.249712 0.166571
vt 0.249712 0.249712
vt 0.166571 0.249712
vt 0.083429 0.249712
vt 0.166571 0.332853
vt 0.083429 0.332853
vt 0.083429 0.000288
vt 0.166571 0.000288
vt 0.166571 0.083429
vt 0.083429 0.083429
vt 0.000288 0.166571
vt 0.083429 0.166571
vt 0.000288 0.249712
vt 0.333429 0.000288
vt 0.416571 0.000288
vt 0.416571 0.083429
vt 0.333429 0.083429
vt 0.416571 0.166571
vt 0.333429 0.166571
vt 0.416571 0.249712
vt 0.333429 0.249712
vt 0.416571 0.332853
vt 0.333429 0.332853
vt 0.250288 0.166571
vt 0.250288 0.249712
vt 0.499712 0.166571
vt 0.499712 0.249712
vt 0.083429 0.333429
vt 0.166571 0.333429
vt 0.166571 0.416571
vt 0.083429 0.416571
vt 0.166571 0.499712
vt 0.083429 0.499712
vt 0.166571 0.582853
vt 0.083429 0.582853
vt 0.166571 0.665995
vt 0.083429 0.665995
vt 0.000288 0.499712
vt 0.000288 0.582853
vt 0.249712 0.499712
vt 0.249712 0.582853
vt 0.333429 0.333429
vt 0.416571 0.333429
vt 0.416571 0.416571
vt 0.333429 0.416571
vt 0.416571 0.499712
vt 0.333429 0.499712
vt 0.416571 0.582853
vt 0.333429 0.582853
vt 0.416571 0.665995
vt 0.333429 0.665995
vt 0.250288 0.499712
vt 0.250288 0.582853
vt 0.499712 0.499712
vt 0.499712 0.582853
vt 0.583429 0.000288
vt 0.666571 0.000288
vt 0.666571 0.083429
vt 0.583429 0.083429
vt 0.666571 0.166571
vt 0.583429 0.166571
vt 0.666571 0.249712
vt 0.583429 0.249712
vt 0.666571 0.332853
vt 0.583429 0.332853
vt 0.500288 0.166571
vt 0.500288 0.249712
vt 0.749712 0.166571
vt 0.749712 0.249712
vt 0.583429 0.333429
vt 0.666571 0.333429
vt 0.666571 0.416571
vt 0.583429 0.416571
vt 0.666571 0.499712
vt 0.583429 0.499712
vt 0.666571 0.582853
vt 0.583429 0.582853
vt 0.666571 0.665995
vt 0.583429 0.665995
vt 0.500288 0.499712
vt 0.500288 0.582853
vt 0.749712 0.499712
vt 0.749712 0.582853
vt 0.083429 0.666571
vt 0.166571 0.666571
vt 0.166571 0.749712
vt 0.083429 0.749712
vt 0.166571 0.832853
vt 0.083429 0.832853
vt 0.166571 0.915995
vt 0.083429 0.915995
vt 0.166571 0.999136
vt 0.083429 0.999136
vt 0.000288 0.832853
vt 0.000288 0.915995
vt 0.249712 0.832853
vt 0.249712 0.915995
vt 0.333429 0.666571
vt 0.416571 0.666571
vt 0.416571 0.749712
vt 0.333429 0.749712
vt 0.416571 0.832853
vt 0.333429 0.832853
vt 0.250288 0.832853
vt 0.250288 0.915995
vt 0.499712 0.832853
vt 0.499712 0.915995
vt 0.583429 0.666571
vt 0.666571 0.666571
vt 0.666571 0.915995
vt 0.583429 0.915995
vt 0.666571 0.999136
vt 0.583429 0.999136
vt 0.500288 0.832853
vt 0.500288 0.915995
vt 0.749712 0.832853
vt 0.749712 0.915995
vt 0.833429 0.000288
vt 0.916571 0.000288
vt 0.916571 0.083429
vt 0.833429 0.083429
vt 0.916571 0.166571
vt 0.833429 0.166571
vt 0.916571 0.249712
vt 0.833429 0.249712
vt 0.916571 0.332853
vt 0.833429 0.332853
vt 0.999712 0.166571
vt 0.999712 0.249712
s 0
usemtl Material
f 3/1/1 4/2/1 2/3/1 1/4/1
f 5/5/1 6/6/1 8/7/1 7/8/1
f 9/9/2 13/10/2 15/11/2 11/12/2
f 12/13/3 11/12/3 15/14/3 16/15/3
f 16/16/4 15/17/4 13/18/4 14/19/4
f 14/20/5 10/21/5 12/13/5 16/22/5
f 10/21/6 9/9/6 11/12/6 12/13/6
f 14/19/7 13/18/7 9/9/7 10/21/7
f 17/23/8 18/24/8 20/25/8 19/26/8
f 19/26/9 20/25/9 24/27/9 23/28/9
f 23/28/10 24/27/10 22/29/10 21/30/10
f 21/30/1 22/29/1 18/31/1 17/32/1
f 19/33/11 23/28/11 21/30/11 17/34/11
f 24/27/3 20/35/3 18/36/3 22/29/3
f 25/37/8 26/38/8 28/39/8 27/40/8
f 27/40/9 28/39/9 32/41/9 31/42/9
f 31/42/10 32/41/10 30/43/10 29/44/10
f 29/44/1 30/43/1 26/45/1 25/46/1
f 27/47/11 31/42/11 29/44/11 25/48/11
f 32/41/3 28/49/3 26/50/3 30/43/3
f 33/51/12 34/52/12 36/53/12 35/54/12
f 35/54/1 36/53/1 40/55/1 39/56/1
f 39/56/13 40/55/13 38/57/13 37/58/13
f 37/58/9 38/57/9 34/59/9 33/60/9
f 35/61/14 39/56/14 37/58/14 33/62/14
f 40/55/7 36/63/7 34/64/7 38/57/7
f 41/65/12 42/66/12 44/67/12 43/68/12
f 43/68/1 44/67/1 48/69/1 47/70/1
f 47/70/13 48/69/13 46/71/13 45/72/13
f 45/72/9 46/71/9 42/73/9 41/74/9
f 43/75/14 47/70/14 45/72/14 41/76/14
f 48/69/7 44/77/7 42/78/7 46/71/7
f 49/79/15 50/80/15 52/81/15 51/82/15
f 51/82/16 52/81/16 56/83/16 55/84/16
f 55/84/17 56/83/17 54/85/17 53/86/17
f 53/86/18 54/85/18 50/87/18 49/88/18
f 51/89/19 55/84/19 53/86/19 49/90/19
f 56/83/4 52/91/4 50/92/4 54/85/4
f 57/93/15 58/94/15 60/95/15 59/96/15
f 59/96/16 60/95/16 64/97/16 63/98/16
f 63/98/17 64/97/17 62/99/17 61/100/17
f 61/100/18 62/99/18 58/101/18 57/102/18
f 59/103/19 63/98/19 61/100/19 57/104/19
f 64/97/4 60/105/4 58/106/4 62/99/4
f 65/107/5 66/108/5 68/109/5 67/110/5
f 67/110/9 68/109/9 72/111/9 71/112/9
f 71/112/2 72/111/2 70/2/2 69/1/2
f 67/113/15 71/112/15 69/1/15 65/114/15
f 72/111/17 68/115/17 66/116/17 70/2/17
f 73/117/5 74/118/5 76/6/5 75/5/5
f 79/8/2 80/7/2 78/119/2 77/120/2
f 77/120/9 78/119/9 74/121/9 73/122/9
f 75/123/17 79/8/17 77/120/17 73/124/17
f 80/7/15 76/125/15 74/126/15 78/119/15
f 81/127/17 82/128/17 84/129/17 83/130/17
f 83/130/20 84/129/20 88/131/20 87/132/20
f 87/132/15 88/131/15 86/133/15 85/134/15
f 85/134/21 86/133/21 82/135/21 81/136/21
f 88/131/22 84/137/22 82/138/22 86/133/22
