# Blender 3.6.4
# www.blender.org
mtllib bacon.mtl
o Cube
v 0.409661 0.152154 1.052972
v 0.409661 -0.152154 1.052972
v 0.279149 0.190231 2.009744
v 0.279149 -0.114077 2.009744
v -0.670796 0.152154 1.052972
v -0.670796 -0.152154 1.052972
v -0.801307 0.190231 2.009744
v -0.801307 -0.114077 2.009744
v 0.408802 0.152154 1.052972
v 0.408802 -0.152154 1.052972
v -0.671655 0.152154 1.052972
v -0.671655 -0.152154 1.052972
v 0.437483 0.360526 -0.096393
v 0.437483 0.056218 -0.096393
v -0.642974 0.360526 -0.096393
v -0.642974 0.056218 -0.096393
v 0.206662 0.221388 -1.242837
v 0.206662 -0.082920 -1.242837
v -0.873795 0.221388 -1.242837
v -0.873795 -0.082920 -1.242837
v 0.098445 0.457176 -2.491990
v 0.098445 0.152868 -2.491990
v -0.959084 0.432913 -2.472453
v -0.982012 0.152868 -2.491990
v 0.425010 0.308495 2.871521
v 0.425010 0.004187 2.871521
v -0.655446 0.308495 2.871521
v -0.655446 0.004187 2.871521
vn -0.0000 0.9992 -0.0398
vn -0.0000 0.9907 -0.1360
vn -0.9908 -0.0000 -0.1352
vn -0.0000 -0.9992 0.0398
vn 0.9908 -0.0000 0.1352
vn -0.0000 -0.0000 1.0000
vn -0.9997 -0.0000 -0.0249
vn -0.0000 1.0000 -0.0000
vn -0.0000 -0.0000 -1.0000
vn -0.0000 0.9927 -0.1205
vn -0.0000 -0.9840 -0.1784
vn -0.0000 0.9840 0.1784
vn 0.9997 -0.0000 0.0249
vn -0.9958 0.0363 0.0843
vn 0.9803 -0.0000 -0.1974
vn -0.9803 -0.0000 0.1974
vn -0.0000 -0.9927 0.1205
vn -0.0095 0.0338 -0.9994
vn -0.0000 -0.9826 -0.1855
vn -0.0095 0.9839 0.1783
vn 0.9963 -0.0000 -0.0863
vn 0.9860 -0.0000 -0.1669
vn -0.9860 -0.0000 0.1669
vn -0.0000 -0.9907 0.1360
vt 0.625000 0.500000
vt 0.875000 0.500000
vt 0.875000 0.750000
vt 0.625000 0.750000
vt 0.375000 0.000000
vt 0.625000 0.000000
vt 0.625000 0.250000
vt 0.375000 0.250000
vt 0.125000 0.500000
vt 0.375000 0.500000
vt 0.375000 0.750000
vt 0.125000 0.750000
vt 0.625000 1.000000
vt 0.375000 1.000000
s 0
usemtl Material
f 1/1/1 5/2/1 7/3/1 3/4/1
f 3/4/2 7/3/2 27/3/2 25/4/2
f 8/5/3 7/6/3 5/7/3 6/8/3
f 6/9/4 2/10/4 4/11/4 8/12/4
f 2/10/5 1/1/5 3/4/5 4/11/5
f 6/8/6 5/7/6 11/7/6 12/8/6
f 12/8/7 11/7/7 15/7/7 16/8/7
f 2/10/8 6/9/8 12/9/8 10/10/8
f 5/2/8 1/1/8 9/1/8 11/2/8
f 1/1/9 2/10/9 10/10/9 9/1/9
f 15/2/10 13/1/10 17/1/10 19/2/10
f 10/10/11 12/9/11 16/9/11 14/10/11
f 11/2/12 9/1/12 13/1/12 15/2/12
f 9/1/13 10/10/13 14/10/13 13/1/13
f 20/8/14 19/7/14 23/7/14 24/8/14
f 13/1/15 14/10/15 18/10/15 17/1/15
f 16/8/16 15/7/16 19/7/16 20/8/16
f 14/10/17 16/9/17 20/9/17 18/10/17
f 24/8/18 23/7/18 21/1/18 22/10/18
f 18/10/19 20/9/19 24/9/19 22/10/19
f 19/2/20 17/1/20 21/1/20 23/2/20
f 17/1/21 18/10/21 22/10/21 21/1/21
f 26/11/6 25/4/6 27/13/6 28/14/6
f 4/11/22 3/4/22 25/4/22 26/11/22
f 7/6/23 8/5/23 28/5/23 27/6/23
f 8/12/24 4/11/24 26/11/24 28/12/24
